Coordinates
version=1
nRows=24
nColumns=26
inDegrees=yes

Units are S.I. units (second, meters, Newtons, ...)
If the header above contains a line with 'inDegrees', this indicates whether rotational values are in degrees (yes) or radians (no).

endheader
time	pelvis_tilt	pelvis_list	pelvis_rotation	pelvis_tx	pelvis_ty	pelvis_tz	hip_flexion_r	hip_adduction_r	hip_rotation_r	knee_angle_r	knee_angle_r_beta	ankle_angle_r	subtalar_angle_r	mtp_angle_r	hip_flexion_l	hip_adduction_l	hip_rotation_l	knee_angle_l	knee_angle_l_beta	ankle_angle_l	subtalar_angle_l	mtp_angle_l	lumbar_extension	lumbar_bending	lumbar_rotation
      1.68500000	      5.79537843	    -11.74253330	      4.38656838	      0.95271846	      1.02819802	      0.24911240	     -4.27433892	     17.96644546	      8.29751884	      2.44834064	      0.04273161	     -5.06188319	    -26.42142185	     -7.49994243	      5.98581972	     -9.24357918	      7.36551513	     60.91356752	      1.06314231	    -15.14021222	    -24.19589507	     -7.49994243	    -13.59217758	     13.47274906	      1.57971461
      1.69000000	      5.71297290	    -11.47883755	      4.18577134	      0.95836139	      1.02869299	      0.24945491	     -4.59756498	     17.70923850	      8.54855784	      2.44917032	      0.04274609	     -4.82203228	    -26.48102490	     -7.49994698	      6.78448950	     -8.88280192	      7.32281922	     60.93008209	      1.06343055	    -14.54675782	    -24.57526131	     -7.49994698	    -13.61814815	     13.12043969	      1.81671595
      1.69500000	      5.62207656	    -11.22851139	      3.95682898	      0.96403136	      1.02913261	      0.24985033	     -4.91796468	     17.46761484	      8.86678517	      2.44220428	      0.04262451	     -4.71551101	    -26.71017083	     -7.49995622	      7.57671869	     -8.57564203	      7.22160378	     60.89355165	      1.06279297	    -13.70591149	    -24.55000278	     -7.49995622	    -13.63342273	     12.77747361	      2.05928322
      1.70000000	      5.54641851	    -10.94877791	      3.67962936	      0.96971234	      1.02961886	      0.25026940	     -5.24704696	     17.18238621	      9.18866896	      2.47809494	      0.04325092	     -4.38496152	    -26.67280200	     -7.49996102	      8.30678281	     -8.23963568	      7.05241707	     60.74107482	      1.06013175	    -13.14936714	    -24.79556564	     -7.49996102	    -13.67445445	     12.39843887	      2.36700820
      1.70500000	      5.50795184	    -10.67086119	      3.41388760	      0.97539529	      1.03010460	      0.25063867	     -5.59793328	     16.89802200	      9.44729111	      2.53429720	      0.04423183	     -4.11715557	    -26.71456288	     -7.49996478	      8.98203790	     -7.91372046	      6.89142049	     60.52287579	      1.05632346	    -12.50540661	    -24.83930962	     -7.49996478	    -13.75760325	     12.03169311	      2.64654823
      1.71000000	      5.45769582	    -10.39837590	      3.12996613	      0.98110250	      1.03055426	      0.25103321	     -5.95049387	     16.61548318	      9.75858801	      2.56455813	      0.04475998	     -3.87071365	    -26.77431751	     -7.49996829	      9.65631670	     -7.62093137	      6.68545372	     60.23826533	      1.05135607	    -11.80220374	    -24.75318594	     -7.49996829	    -13.81604243	     11.66549229	      2.93328113
      1.71500000	      5.39857605	    -10.14582037	      2.89838368	      0.98674175	      1.03090947	      0.25133406	     -6.28206463	     16.35612866	     10.05814194	      2.57509035	      0.04494381	     -3.78238957	    -27.01861057	     -7.49997259	     10.36203189	     -7.34905100	      6.55886383	     59.94174685	      1.04618084	    -10.94635643	    -24.34804954	     -7.49997259	    -13.86365213	     11.34562154	      3.14356809
      1.72000000	      5.36584826	     -9.86698386	      2.62082603	      0.99243243	      1.03131139	      0.25165441	     -6.64006802	     16.05756370	     10.34691189	      2.61607934	      0.04565920	     -3.53062574	    -27.07293835	     -7.49997561	     10.98582564	     -7.05788826	      6.35506627	     59.52215859	      1.03885765	    -10.35559491	    -24.21253771	     -7.49997561	    -13.94017238	     10.98801199	      3.41355032
      1.72500000	      5.34432206	     -9.59276950	      2.34708674	      0.99813065	      1.03168009	      0.25196467	     -7.01584386	     15.76074633	     10.63994360	      2.63973418	      0.04607205	     -3.26290353	    -27.08836504	     -7.49997906	     11.59181576	     -6.79310596	      6.13898466	     59.05614377	      1.03072415	     -9.67788204	    -23.87262227	     -7.49997906	    -14.02473715	     10.63655611	      3.65553063
      1.73000000	      5.33641841	     -9.32919850	      2.07467284	      1.00382914	      1.03204641	      0.25225099	     -7.38403436	     15.47214143	     10.89309562	      2.69817439	      0.04709203	     -3.01177707	    -27.15108440	     -7.49998147	     12.15124847	     -6.54347915	      5.92518336	     58.50272987	      1.02106526	     -9.09544682	    -23.63245163	     -7.49998147	    -14.12401499	     10.30649864	      3.94132454
      1.73500000	      5.31219329	     -9.04840031	      1.79938850	      1.00954554	      1.03233130	      0.25251225	     -7.74592795	     15.15573136	     11.15160034	      2.73330676	      0.04770520	     -2.68514758	    -27.11326570	     -7.49998298	     12.72040286	     -6.28448658	      5.68430913	     57.90160325	      1.01057362	     -8.55406412	    -23.36257005	     -7.49998298	    -14.19226146	      9.95340775	      4.18160841
      1.74000000	      5.32039967	     -8.77643282	      1.52126586	      1.01527960	      1.03263847	      0.25277143	     -8.14543146	     14.84520162	     11.42218884	      2.76170375	      0.04820082	     -2.39018741	    -27.10944519	     -7.49998428	     13.22376619	     -6.04700854	      5.43881807	     57.22332120	      0.99873536	     -8.00678280	    -23.03836032	     -7.49998428	    -14.29885851	      9.61241486	      4.43189897
      1.74500000	      5.31178703	     -8.50776074	      1.26231630	      1.02100640	      1.03287245	      0.25298850	     -8.51768103	     14.53877928	     11.65057374	      2.78817994	      0.04866292	     -2.10268839	    -27.11845236	     -7.49998557	     13.73214976	     -5.80645075	      5.22998247	     56.48977249	      0.98593252	     -7.50504076	    -22.74140871	     -7.49998557	    -14.37491266	      9.28234364	      4.66125098
      1.75000000	      5.34279608	     -8.23837636	      0.99343491	      1.02678472	      1.03314042	      0.25318423	     -8.94937990	     14.21899233	     11.87303561	      2.80411977	      0.04894112	     -1.72765205	    -26.97172415	     -7.49998699	     14.16716688	     -5.58060278	      4.96842719	     55.67688824	      0.97174502	     -7.14095768	    -22.55954445	     -7.49998699	    -14.49587218	      8.94837209	      4.91352730
      1.75500000	      5.33801329	     -7.99528112	      0.77333915	      1.03252642	      1.03327453	      0.25331329	     -9.33467352	     13.93012507	     12.08813894	      2.79195165	      0.04872875	     -1.54130271	    -27.04887801	     -7.49998921	     14.64833786	     -5.37298282	      4.79251279	     54.85204232	      0.95734874	     -6.62853396	    -22.18404522	     -7.49998921	    -14.56653059	      8.65819608	      5.08714493
      1.76000000	      5.36112273	     -7.73806178	      0.55755296	      1.03827313	      1.03342889	      0.25340790	     -9.74719663	     13.62136656	     12.26428320	      2.79094576	      0.04871119	     -1.25224596	    -27.02749590	     -7.49999059	     15.06125195	     -5.13928433	      4.62819799	     53.93517682	      0.94134642	     -6.29076115	    -22.01283773	     -7.49999059	    -14.66851164	      8.35806254	      5.23924988
      1.76500000	      5.37872291	     -7.49424619	      0.31806149	      1.04406908	      1.03354723	      0.25354440	    -10.16613913	     13.32456236	     12.45911980	      2.76384674	      0.04823823	     -0.97717026	    -26.98833984	     -7.49999135	     15.44611818	     -4.94608070	      4.41544342	     52.95479137	      0.92423546	     -5.91790706	    -21.73200509	     -7.49999135	    -14.76127742	      8.06447966	      5.45990198
      1.77000000	      5.40259459	     -7.26099897	      0.10969227	      1.04985161	      1.03361891	      0.25362337	    -10.58821687	     13.03058487	     12.62864665	      2.74968564	      0.04799107	     -0.60514686	    -26.84064801	     -7.49999253	     15.81057268	     -4.73239152	      4.27814751	     51.92740682	      0.90630422	     -5.71297261	    -21.73823249	     -7.49999253	    -14.84921667	      7.78830028	      5.62302824
      1.77500000	      5.42107730	     -7.03055766	     -0.09770499	      1.05566018	      1.03365775	      0.25367935	    -11.01843615	     12.73679727	     12.78869767	      2.69346691	      0.04700987	     -0.33780028	    -26.76540207	     -7.49999321	     16.14865742	     -4.52737495	      4.14402124	     50.83638962	      0.88726238	     -5.47339389	    -21.64231208	     -7.49999321	    -14.92893231	      7.51418034	      5.80651035
      1.78000000	      5.43205162	     -6.80562417	     -0.27231327	      1.06145537	      1.03365696	      0.25364976	    -11.42444654	     12.44401658	     12.86870369	      2.65888252	      0.04640625	     -0.01812130	    -26.60138407	     -7.49999357	     16.47435088	     -4.29261696	      4.07984360	     49.66586318	      0.86683284	     -5.57598170	    -21.95890396	     -7.49999357	    -14.99496576	      7.26685754	      5.94463562
      1.78500000	      5.45477509	     -6.58690515	     -0.49539250	      1.06730705	      1.03362204	      0.25374159	    -11.86595548	     12.15580661	     13.05979907	      2.60474511	      0.04546138	      0.38426154	    -26.41638912	     -7.49999420	     16.73685192	     -4.11601580	      3.92451167	     48.45853537	      0.84576099	     -5.27893422	    -21.85960010	     -7.49999420	    -15.07736306	      6.99819863	      6.10613290
      1.79000000	      5.48937924	     -6.41023076	     -0.63284693	      1.07312008	      1.03354274	      0.25372040	    -12.33213503	     11.92359983	     13.15248996	      2.48381583	      0.04335076	      0.54725934	    -26.41044145	     -7.49999523	     16.99430500	     -3.95938857	      3.90214801	     47.23694281	      0.82444018	     -4.90342923	    -21.59440481	     -7.49999523	    -15.17089705	      6.79617961	      6.21916232
      1.79500000	      5.48695631	     -6.21103350	     -0.83009979	      1.07897144	      1.03341675	      0.25375085	    -12.72370954	     11.64629229	     13.21916918	      2.46362938	      0.04299844	      0.95369339	    -26.08953176	     -7.49999576	     17.23763496	     -3.77675971	      3.84025991	     45.91732106	      0.80140844	     -4.88691801	    -21.76457661	     -7.49999576	    -15.21405814	      6.56157186	      6.39089197
      1.80000000	      5.49213144	     -6.03183187	     -0.91402093	      1.08478976	      1.03324765	      0.25355521	    -13.13346397	     11.40859047	     13.18588583	      2.38587414	      0.04164136	      1.25084636	    -25.93190985	     -7.49999618	     17.46153947	     -3.55025859	      3.94803085	     44.53922916	      0.77735620	     -5.00354578	    -22.15297755	     -7.49999618	    -15.26508734	      6.38121445	      6.41281027
